<?xml version="1.0" encoding="utf-8"?>
<!-- Generator: Adobe Illustrator 17.1.0, SVG Export Plug-In . SVG Version: 6.00 Build 0)  -->
<!DOCTYPE svg PUBLIC "-//W3C//DTD SVG 1.1//EN" "http://www.w3.org/Graphics/SVG/1.1/DTD/svg11.dtd">
<svg version="1.1" xmlns="http://www.w3.org/2000/svg" xmlns:xlink="http://www.w3.org/1999/xlink" x="0px" y="0px" width="16px"
	 height="16px" viewBox="0 0 16 16" enable-background="new 0 0 16 16" xml:space="preserve">
<g id="Menu_icon_1_" display="none" enable-background="new    ">
	<g id="Menu_icon" display="inline">
		<g>
			<path fill-rule="evenodd" clip-rule="evenodd" fill="#B3B3B3" d="M1,1v3h14V1H1z M1,10h14V7H1V10z M1,16h14v-3H1V16z"/>
		</g>
	</g>
</g>
<g id="Ellipse_1_1_" display="none" enable-background="new    ">
	<g id="Ellipse_1" display="inline">
		<g>
			<circle fill-rule="evenodd" clip-rule="evenodd" fill="#B3B3B3" cx="8" cy="8" r="5"/>
		</g>
	</g>
</g>
<g id="Refresh_icon_1_" enable-background="new    ">
	<g id="Refresh_icon">
		<g>
			<path fill-rule="evenodd" clip-rule="evenodd" fill="#B3B3B3" d="M12.5,10.9l2.5-3h-1.7C13.2,4.6,10.7,2,7.7,2C4.5,2,2,4.7,2,8
				c0,3.3,2.5,6,5.7,6c1.3,0,2.5-0.5,3.5-1.3l-1-1.1c-0.7,0.5-1.6,0.9-2.5,0.9c-2.3,0-4.2-2-4.2-4.5s1.9-4.5,4.2-4.5
				c2.3,0,4.2,1.9,4.2,4.4h-2L12.5,10.9z"/>
		</g>
	</g>
</g>
</svg>
